<svg xmlns="http://www.w3.org/2000/svg" viewBox="0 0 16 16" shape-rendering="crispEdges">
  <rect x="4" y="1" width="2" height="2" fill="#7a4000"/>
  <rect x="6" y="1" width="2" height="2" fill="#7a4000"/>
  <rect x="4" y="3" width="2" height="2" fill="#3b1a00"/>
  <rect x="6" y="3" width="2" height="2" fill="#c8864a"/>
  <rect x="8" y="3" width="2" height="2" fill="#c8864a"/>
  <rect x="10" y="3" width="2" height="2" fill="#3b1a00"/>
  <rect x="6" y="5" width="2" height="2" fill="#c8864a"/>
  <rect x="8" y="5" width="2" height="2" fill="#d49a5e"/>
  <rect x="10" y="5" width="2" height="2" fill="#c8864a"/>
  <rect x="12" y="5" width="2" height="2" fill="#3b1a00"/>
  <rect x="12" y="7" width="2" height="2" fill="#c8864a"/>
  <rect x="12" y="9" width="2" height="2" fill="#3b1a00"/>
  <rect x="2"  y="7" width="2" height="2" fill="#3b1a00"/>
  <rect x="4"  y="7" width="2" height="2" fill="#c8864a"/>
  <rect x="6"  y="7" width="2" height="2" fill="#c8864a"/>
  <rect x="8"  y="7" width="2" height="2" fill="#c8864a"/>
  <rect x="10" y="7" width="2" height="2" fill="#c8864a"/>
  <rect x="2"  y="9" width="2" height="2" fill="#c8864a"/>
  <rect x="4"  y="9" width="2" height="2" fill="#d49a5e"/>
  <rect x="6"  y="9" width="2" height="2" fill="#d49a5e"/>
  <rect x="8"  y="9" width="2" height="2" fill="#c8864a"/>
  <rect x="10" y="9" width="2" height="2" fill="#3b1a00"/>
  <rect x="2"  y="11" width="2" height="2" fill="#3b1a00"/>
  <rect x="4"  y="11" width="2" height="2" fill="#f0c080"/>
  <rect x="8"  y="11" width="2" height="2" fill="#3b1a00"/>
  <rect x="9"  y="11" width="2" height="2" fill="#f0c080"/>
  <rect x="4"  y="13" width="2" height="2" fill="#3b1a00"/>
  <rect x="9"  y="13" width="2" height="2" fill="#3b1a00"/>
</svg>
